####
#
# OBJ File Generated by Meshlab
#
####
# Object snake_fat_adjust1.obj
#
# Vertices: 160
# Faces: 304
#
####
vn 2.019072 -2.024228 4.163918
v 0.018080 -0.004302 0.000000
vn 2.186666 -2.107006 2.809677
v 0.011847 -0.017494 0.000000
vn 0.036898 -2.788554 2.324892
v 0.000078 -0.024259 0.000000
vn -2.196380 -2.114214 2.925614
v -0.011690 -0.017494 0.000000
vn -1.943923 -2.009695 4.323563
v -0.017924 -0.004302 0.000000
vn -1.470242 0.055914 1.282431
v -0.027434 -0.000126 0.000000
vn -2.019042 2.024314 4.163860
v -0.017924 0.004050 0.000000
vn -2.186659 2.107066 2.809772
v -0.011690 0.017242 0.000000
vn -0.037001 2.788548 2.324872
v 0.000078 0.024007 0.000000
vn 2.196372 2.114173 2.925520
v 0.011847 0.017242 0.000000
vn 1.943960 2.009594 4.323634
v 0.018080 0.004050 0.000000
vn 1.470242 -0.055911 1.282431
v 0.027590 -0.000126 0.000000
vn 3.467802 -5.004238 0.527731
v 0.047524 -0.006120 -0.173098
vn 3.331873 -4.995409 0.587187
v 0.031097 -0.025054 -0.173098
vn 0.010866 -5.987422 0.454246
v 0.000078 -0.034764 -0.173098
vn -3.337172 -5.009084 0.514344
v -0.030941 -0.025054 -0.173098
vn -2.300536 -5.210269 0.151849
v -0.047367 -0.006120 -0.173098
vn -0.823500 -0.182498 0.005434
v -0.083445 -0.007882 -0.173098
vn -3.467932 5.004143 0.527726
v -0.047367 0.005868 -0.173098
vn -3.331855 4.995360 0.587184
v -0.030941 0.024802 -0.173098
vn -0.010864 5.987479 0.454249
v 0.000078 0.034511 -0.173098
vn 3.337027 5.009187 0.514328
v 0.031097 0.024802 -0.173098
vn 2.300569 5.210339 0.151847
v 0.047524 0.005868 -0.173098
vn 0.823509 0.182478 0.005435
v 0.083602 0.007629 -0.173098
vn 1.772133 -5.025849 0.434243
v 0.063799 -0.008743 -0.352335
vn 3.431709 -4.943602 0.524153
v 0.041736 -0.035963 -0.352335
vn -0.008561 -5.942184 0.518270
v 0.000078 -0.049921 -0.352335
vn -3.430897 -4.937799 0.518726
v -0.041579 -0.035963 -0.352335
vn -4.751973 -4.014583 0.772880
v -0.063642 -0.008743 -0.352335
vn -1.654060 1.291364 0.718836
v -0.080234 0.012786 -0.352335
vn -1.772303 5.025886 0.434251
v -0.063642 0.008491 -0.352335
vn -3.431732 4.943594 0.524150
v -0.041579 0.035711 -0.352335
vn 0.008524 5.942183 0.518277
v 0.000078 0.049669 -0.352335
vn 3.430876 4.937799 0.518733
v 0.041736 0.035711 -0.352335
vn 4.752013 4.014538 0.772882
v 0.063799 0.008491 -0.352335
vn 1.653927 -1.291370 0.718824
v 0.080391 -0.013039 -0.352335
vn 3.420918 -4.920949 0.238362
v 0.078386 -0.011287 -0.509142
vn 3.549912 -4.840487 0.507046
v 0.051273 -0.046543 -0.509142
vn -0.022550 -5.902895 0.554538
v 0.000078 -0.064621 -0.509142
vn -3.547729 -4.826597 0.464403
v -0.051116 -0.046543 -0.509142
vn -3.128790 -4.998849 -0.031525
v -0.078230 -0.011287 -0.509142
vn -1.236418 -0.147249 -0.165452
v -0.125106 -0.004535 -0.509142
vn -3.420888 4.920992 0.238382
v -0.078230 0.011035 -0.509142
vn -3.549893 4.840525 0.507045
v -0.051116 0.046291 -0.509142
vn 0.022507 5.902894 0.554525
v 0.000078 0.064369 -0.509142
vn 3.547744 4.826559 0.464403
v 0.051273 0.046291 -0.509142
vn 3.128830 4.998801 -0.031536
v 0.078386 0.011035 -0.509142
vn 1.236420 0.147251 -0.165469
v 0.125262 0.004283 -0.509142
vn 1.471346 -4.648589 0.441176
v 0.083264 -0.013813 -0.649482
vn 3.778606 -4.643434 0.309311
v 0.054463 -0.057046 -0.649482
vn -0.026168 -5.772828 0.425783
v 0.000078 -0.079216 -0.649482
vn -3.769534 -4.624272 0.326114
v -0.054306 -0.057046 -0.649482
vn -5.271754 -3.323079 0.554320
v -0.083108 -0.013813 -0.649482
vn -1.337511 1.604945 0.782130
v -0.099875 0.021628 -0.649482
vn -1.471447 4.648676 0.441172
v -0.083108 0.013561 -0.649482
vn -3.778554 4.643489 0.309334
v -0.054306 0.056794 -0.649482
vn 0.026137 5.772870 0.425786
v 0.000078 0.078963 -0.649482
vn 3.769494 4.624261 0.326106
v 0.054463 0.056794 -0.649482
vn 5.271801 3.323004 0.554335
v 0.083264 0.013561 -0.649482
vn 1.337382 -1.604895 0.782134
v 0.100031 -0.021881 -0.649482
vn 3.553916 -4.712607 -0.252895
v 0.084368 -0.014963 -0.766983
vn 3.867753 -4.514706 -0.084426
v 0.055184 -0.061835 -0.766983
vn -0.009337 -5.669557 -0.026340
v 0.000078 -0.085870 -0.766983
vn -3.863887 -4.508168 -0.054258
v -0.055028 -0.061835 -0.766983
vn -3.929190 -4.515729 -0.526642
v -0.084211 -0.014963 -0.766983
vn -1.691321 -0.075075 -0.435942
v -0.128740 -0.000126 -0.766983
vn -3.553937 4.712567 -0.252924
v -0.084211 0.014711 -0.766983
vn -3.867774 4.514663 -0.084442
v -0.055028 0.061583 -0.766983
vn 0.009337 5.669552 -0.026317
v 0.000078 0.085618 -0.766983
vn 3.863858 4.508213 -0.054256
v 0.055184 0.061583 -0.766983
vn 3.929187 4.515758 -0.526656
v 0.084368 0.014711 -0.766983
vn 1.691368 0.075082 -0.435941
v 0.128896 -0.000126 -0.766983
vn 0.956913 -4.332449 0.267295
v 0.078891 -0.013952 -0.861738
vn 3.787692 -4.472260 -0.751330
v 0.051603 -0.057624 -0.861738
vn 0.021715 -5.571554 -0.812808
v 0.000078 -0.080021 -0.861738
vn -3.803103 -4.495730 -0.691473
v -0.051446 -0.057624 -0.861738
vn -5.468090 -2.968516 -0.097389
v -0.078734 -0.013952 -0.861738
vn -0.849702 1.415728 0.750781
v -0.091143 0.023746 -0.861738
vn -0.956914 4.332407 0.267273
v -0.078734 0.013699 -0.861738
vn -3.787719 4.472229 -0.751357
v -0.051446 0.057372 -0.861738
vn -0.021758 5.571547 -0.812832
v 0.000078 0.079769 -0.861738
vn 3.803108 4.495694 -0.691465
v 0.051603 0.057372 -0.861738
vn 5.468110 2.968467 -0.097390
v 0.078891 0.013699 -0.861738
vn 0.849740 -1.415813 0.750797
v 0.091299 -0.023998 -0.861738
vn 3.000680 -4.958463 -1.763182
v 0.068445 -0.010431 -0.943086
vn 3.444756 -4.271126 -1.874147
v 0.044774 -0.042982 -0.943086
vn 0.002654 -5.437555 -1.883655
v 0.000078 -0.059673 -0.943086
vn -3.404435 -4.227400 -2.038060
v -0.044617 -0.042982 -0.943086
vn -3.152888 -4.901805 -1.716409
v -0.068289 -0.010431 -0.943086
vn -1.535540 -0.069531 -0.744147
v -0.104405 -0.000126 -0.943086
vn -3.000597 4.958505 -1.763163
v -0.068289 0.010178 -0.943086
vn -3.444731 4.271145 -1.874125
v -0.044617 0.042730 -0.943086
vn -0.002703 5.437617 -1.883666
v 0.000078 0.059420 -0.943086
vn 3.404430 4.227340 -2.038037
v 0.044774 0.042730 -0.943086
vn 3.152848 4.901788 -1.716355
v 0.068445 0.010178 -0.943086
vn 1.535501 0.069563 -0.744121
v 0.104562 -0.000126 -0.943086
vn 1.637836 -1.518340 -5.259405
v 0.025709 -0.005901 -1.000000
vn 1.965960 -2.060811 -4.291799
v 0.016834 -0.024145 -1.000000
vn -0.112056 -2.877658 -3.567355
v 0.000078 -0.033502 -1.000000
vn -1.994075 -2.110516 -4.081985
v -0.016677 -0.024145 -1.000000
vn -1.701264 -1.616796 -5.133357
v -0.025552 -0.005903 -1.000000
vn -1.654501 -0.082886 -2.555568
v -0.039092 -0.000126 -1.000000
vn -1.637768 1.518310 -5.259459
v -0.025552 0.005648 -1.000000
vn -1.965996 2.060766 -4.291825
v -0.016677 0.023893 -1.000000
vn 0.111997 2.877665 -3.567336
v 0.000078 0.033250 -1.000000
vn 1.994043 2.110550 -4.081951
v 0.016834 0.023893 -1.000000
vn 1.701308 1.616789 -5.133329
v 0.025709 0.005651 -1.000000
vn 1.654667 0.083050 -2.555830
v 0.039248 -0.000126 -1.000000
vn 0.000000 0.000000 -6.283185
v 0.000078 -0.000126 -1.000000
vn -0.225835 -1.663825 0.436012
v 0.004282 -0.007135 -1.006026
vn -2.312932 0.538300 0.563783
v -0.003460 0.006273 -1.006026
vn -0.426274 -0.523702 2.807828
v 0.002786 0.000941 -0.999963
vn -0.132604 -3.072028 -0.931249
v 0.084601 0.001751 -1.110255
vn -2.698581 1.441839 -0.956309
v 0.044396 0.071389 -1.110255
vn 0.874956 0.495363 2.209409
v 0.096091 0.054811 -1.029627
vn 0.472837 -2.754088 -1.366223
v 0.165351 0.036039 -1.185589
vn -2.168739 1.778912 -1.358527
v 0.114464 0.124177 -1.185589
vn 1.310566 0.760246 2.106914
v 0.178073 0.102143 -1.088186
vn 0.978775 -2.341365 -1.792653
v 0.241992 0.092621 -1.244148
vn -1.486029 2.028567 -1.799524
v 0.201787 0.162259 -1.244148
vn 1.623238 0.934522 1.815439
v 0.253482 0.145680 -1.163521
vn 1.735569 -0.619403 -1.310395
v 0.319064 0.174605 -1.273813
vn 0.137478 1.494630 -0.836977
v 0.311322 0.188014 -1.273813
vn 2.917323 2.076648 1.168070
v 0.317570 0.182681 -1.267749
vn -4.957547 -2.862569 2.589757
v 0.001203 0.000026 -1.004005
vn 4.957284 2.862199 -2.590667
v 0.315985 0.181767 -1.271793
vn -1.328091 1.027800 0.436051
v -0.007448 -0.000634 -1.006026
vn 1.622617 1.733833 0.563893
v 0.008035 -0.000634 -1.006026
vn -0.240563 0.630892 2.808128
v 0.000293 -0.003378 -0.999963
vn -2.594191 1.650893 -0.931268
v -0.039912 -0.074636 -1.110255
vn 2.597935 1.616088 -0.956282
v 0.040499 -0.074636 -1.110255
vn -0.008514 -1.005438 2.209444
v 0.000293 -0.111115 -1.029627
vn -2.621505 0.967553 -1.366212
v -0.050594 -0.161710 -1.185589
vn 2.624952 0.988733 -1.358523
v 0.051180 -0.161710 -1.185589
vn 0.003100 -1.515122 2.106932
v 0.000293 -0.205780 -1.088186
vn -2.517088 0.323035 -1.792678
v -0.039912 -0.256375 -1.244148
vn 2.499797 0.272653 -1.799515
v 0.040499 -0.256375 -1.244148
vn -0.002307 -1.873004 1.815429
v 0.000293 -0.292856 -1.163521
vn -1.404153 -1.193347 -1.310373
v -0.007448 -0.364114 -1.273813
vn 1.225605 -0.866412 -0.836988
v 0.008035 -0.364114 -1.273813
vn 0.339794 -3.564768 1.167978
v 0.000293 -0.366858 -1.267749
vn -0.000000 5.724198 2.590747
v 0.000293 -0.001549 -1.004005
vn -0.000000 -5.724399 -2.590304
v 0.000293 -0.365028 -1.271793
vn 1.554187 0.636327 0.436030
v 0.004046 0.006273 -1.006026
vn 0.690238 -2.272287 0.563828
v -0.003695 -0.007135 -1.006026
vn 0.666417 -0.107090 2.808429
v -0.002201 0.000941 -0.999963
vn 2.726816 1.421174 -0.931279
v -0.043809 0.071389 -1.110255
vn 0.100591 -3.057912 -0.956273
v -0.084015 0.001751 -1.110255
vn -0.866456 0.510101 2.209439
v -0.095504 0.054811 -1.029627
vn 2.148687 1.786515 -1.366226
v -0.113877 0.124177 -1.185589
vn -0.456214 -2.767661 -1.358535
v -0.164764 0.036039 -1.185589
vn -1.313685 0.754882 2.106929
v -0.177486 0.102143 -1.088186
vn 1.538294 2.018335 -1.792660
v -0.201200 0.162259 -1.244148
vn -1.013776 -2.301224 -1.799513
v -0.241406 0.092621 -1.244148
vn -1.620946 0.938488 1.815447
v -0.252896 0.145680 -1.163521
vn -0.331438 1.812636 -1.310262
v -0.310736 0.188014 -1.273813
vn -1.363259 -0.628288 -0.837143
v -0.318477 0.174605 -1.273813
vn -3.257349 1.487977 1.168081
v -0.316983 0.182681 -1.267749
vn 4.957401 -2.862116 2.590537
v -0.000616 0.000026 -1.004005
vn -4.957603 2.862020 -2.590256
v -0.315398 0.181767 -1.271793
# 160 vertices, 0 vertices normals

f 1//1 2//2 14//14
f 1//1 14//14 13//13
f 2//2 3//3 15//15
f 2//2 15//15 14//14
f 3//3 4//4 16//16
f 3//3 16//16 15//15
f 4//4 5//5 17//17
f 4//4 17//17 16//16
f 5//5 6//6 18//18
f 5//5 18//18 17//17
f 6//6 7//7 19//19
f 6//6 19//19 18//18
f 7//7 8//8 20//20
f 7//7 20//20 19//19
f 8//8 9//9 21//21
f 8//8 21//21 20//20
f 9//9 10//10 22//22
f 9//9 22//22 21//21
f 10//10 11//11 23//23
f 10//10 23//23 22//22
f 11//11 12//12 24//24
f 11//11 24//24 23//23
f 12//12 1//1 13//13
f 12//12 13//13 24//24
f 13//13 14//14 26//26
f 13//13 26//26 25//25
f 14//14 15//15 27//27
f 14//14 27//27 26//26
f 15//15 16//16 28//28
f 15//15 28//28 27//27
f 16//16 17//17 29//29
f 16//16 29//29 28//28
f 17//17 18//18 30//30
f 17//17 30//30 29//29
f 18//18 19//19 31//31
f 18//18 31//31 30//30
f 19//19 20//20 32//32
f 19//19 32//32 31//31
f 20//20 21//21 33//33
f 20//20 33//33 32//32
f 21//21 22//22 34//34
f 21//21 34//34 33//33
f 22//22 23//23 35//35
f 22//22 35//35 34//34
f 23//23 24//24 36//36
f 23//23 36//36 35//35
f 24//24 13//13 25//25
f 24//24 25//25 36//36
f 25//25 26//26 38//38
f 25//25 38//38 37//37
f 26//26 27//27 39//39
f 26//26 39//39 38//38
f 27//27 28//28 40//40
f 27//27 40//40 39//39
f 28//28 29//29 41//41
f 28//28 41//41 40//40
f 29//29 30//30 42//42
f 29//29 42//42 41//41
f 30//30 31//31 43//43
f 30//30 43//43 42//42
f 31//31 32//32 44//44
f 31//31 44//44 43//43
f 32//32 33//33 45//45
f 32//32 45//45 44//44
f 33//33 34//34 46//46
f 33//33 46//46 45//45
f 34//34 35//35 47//47
f 34//34 47//47 46//46
f 35//35 36//36 48//48
f 35//35 48//48 47//47
f 36//36 25//25 37//37
f 36//36 37//37 48//48
f 37//37 38//38 50//50
f 37//37 50//50 49//49
f 38//38 39//39 51//51
f 38//38 51//51 50//50
f 39//39 40//40 52//52
f 39//39 52//52 51//51
f 40//40 41//41 53//53
f 40//40 53//53 52//52
f 41//41 42//42 54//54
f 41//41 54//54 53//53
f 42//42 43//43 55//55
f 42//42 55//55 54//54
f 43//43 44//44 56//56
f 43//43 56//56 55//55
f 44//44 45//45 57//57
f 44//44 57//57 56//56
f 45//45 46//46 58//58
f 45//45 58//58 57//57
f 46//46 47//47 59//59
f 46//46 59//59 58//58
f 47//47 48//48 60//60
f 47//47 60//60 59//59
f 48//48 37//37 49//49
f 48//48 49//49 60//60
f 49//49 50//50 62//62
f 49//49 62//62 61//61
f 50//50 51//51 63//63
f 50//50 63//63 62//62
f 51//51 52//52 64//64
f 51//51 64//64 63//63
f 52//52 53//53 65//65
f 52//52 65//65 64//64
f 53//53 54//54 66//66
f 53//53 66//66 65//65
f 54//54 55//55 67//67
f 54//54 67//67 66//66
f 55//55 56//56 68//68
f 55//55 68//68 67//67
f 56//56 57//57 69//69
f 56//56 69//69 68//68
f 57//57 58//58 70//70
f 57//57 70//70 69//69
f 58//58 59//59 71//71
f 58//58 71//71 70//70
f 59//59 60//60 72//72
f 59//59 72//72 71//71
f 60//60 49//49 61//61
f 60//60 61//61 72//72
f 61//61 62//62 74//74
f 61//61 74//74 73//73
f 62//62 63//63 75//75
f 62//62 75//75 74//74
f 63//63 64//64 76//76
f 63//63 76//76 75//75
f 64//64 65//65 77//77
f 64//64 77//77 76//76
f 65//65 66//66 78//78
f 65//65 78//78 77//77
f 66//66 67//67 79//79
f 66//66 79//79 78//78
f 67//67 68//68 80//80
f 67//67 80//80 79//79
f 68//68 69//69 81//81
f 68//68 81//81 80//80
f 69//69 70//70 82//82
f 69//69 82//82 81//81
f 70//70 71//71 83//83
f 70//70 83//83 82//82
f 71//71 72//72 84//84
f 71//71 84//84 83//83
f 72//72 61//61 73//73
f 72//72 73//73 84//84
f 73//73 74//74 86//86
f 73//73 86//86 85//85
f 74//74 75//75 87//87
f 74//74 87//87 86//86
f 75//75 76//76 88//88
f 75//75 88//88 87//87
f 76//76 77//77 89//89
f 76//76 89//89 88//88
f 77//77 78//78 90//90
f 77//77 90//90 89//89
f 78//78 79//79 91//91
f 78//78 91//91 90//90
f 79//79 80//80 92//92
f 79//79 92//92 91//91
f 80//80 81//81 93//93
f 80//80 93//93 92//92
f 81//81 82//82 94//94
f 81//81 94//94 93//93
f 82//82 83//83 95//95
f 82//82 95//95 94//94
f 83//83 84//84 96//96
f 83//83 96//96 95//95
f 84//84 73//73 85//85
f 84//84 85//85 96//96
f 85//85 86//86 98//98
f 85//85 98//98 97//97
f 86//86 87//87 99//99
f 86//86 99//99 98//98
f 87//87 88//88 100//100
f 87//87 100//100 99//99
f 88//88 89//89 101//101
f 88//88 101//101 100//100
f 89//89 90//90 102//102
f 89//89 102//102 101//101
f 90//90 91//91 103//103
f 90//90 103//103 102//102
f 91//91 92//92 104//104
f 91//91 104//104 103//103
f 92//92 93//93 105//105
f 92//92 105//105 104//104
f 93//93 94//94 106//106
f 93//93 106//106 105//105
f 94//94 95//95 107//107
f 94//94 107//107 106//106
f 95//95 96//96 108//108
f 95//95 108//108 107//107
f 96//96 85//85 97//97
f 96//96 97//97 108//108
f 97//97 98//98 109//109
f 98//98 99//99 109//109
f 99//99 100//100 109//109
f 100//100 101//101 109//109
f 101//101 102//102 109//109
f 102//102 103//103 109//109
f 103//103 104//104 109//109
f 104//104 105//105 109//109
f 105//105 106//106 109//109
f 106//106 107//107 109//109
f 107//107 108//108 109//109
f 108//108 97//97 109//109
f 1//1 12//12 11//11
f 7//7 6//6 5//5
f 2//2 1//1 11//11
f 2//2 11//11 10//10
f 3//3 2//2 10//10
f 3//3 10//10 9//9
f 9//9 8//8 4//4
f 9//9 4//4 3//3
f 8//8 7//7 5//5
f 8//8 5//5 4//4
f 110//110 111//111 114//114
f 110//110 114//114 113//113
f 111//111 112//112 115//115
f 111//111 115//115 114//114
f 112//112 110//110 113//113
f 112//112 113//113 115//115
f 113//113 114//114 117//117
f 113//113 117//117 116//116
f 114//114 115//115 118//118
f 114//114 118//118 117//117
f 115//115 113//113 116//116
f 115//115 116//116 118//118
f 116//116 117//117 120//120
f 116//116 120//120 119//119
f 117//117 118//118 121//121
f 117//117 121//121 120//120
f 118//118 116//116 119//119
f 118//118 119//119 121//121
f 119//119 120//120 123//123
f 119//119 123//123 122//122
f 120//120 121//121 124//124
f 120//120 124//124 123//123
f 121//121 119//119 122//122
f 121//121 122//122 124//124
f 111//111 110//110 125//125
f 112//112 111//111 125//125
f 110//110 112//112 125//125
f 122//122 123//123 126//126
f 123//123 124//124 126//126
f 124//124 122//122 126//126
f 127//127 128//128 131//131
f 127//127 131//131 130//130
f 128//128 129//129 132//132
f 128//128 132//132 131//131
f 129//129 127//127 130//130
f 129//129 130//130 132//132
f 130//130 131//131 134//134
f 130//130 134//134 133//133
f 131//131 132//132 135//135
f 131//131 135//135 134//134
f 132//132 130//130 133//133
f 132//132 133//133 135//135
f 133//133 134//134 137//137
f 133//133 137//137 136//136
f 134//134 135//135 138//138
f 134//134 138//138 137//137
f 135//135 133//133 136//136
f 135//135 136//136 138//138
f 136//136 137//137 140//140
f 136//136 140//140 139//139
f 137//137 138//138 141//141
f 137//137 141//141 140//140
f 138//138 136//136 139//139
f 138//138 139//139 141//141
f 128//128 127//127 142//142
f 129//129 128//128 142//142
f 127//127 129//129 142//142
f 139//139 140//140 143//143
f 140//140 141//141 143//143
f 141//141 139//139 143//143
f 144//144 145//145 148//148
f 144//144 148//148 147//147
f 145//145 146//146 149//149
f 145//145 149//149 148//148
f 146//146 144//144 147//147
f 146//146 147//147 149//149
f 147//147 148//148 151//151
f 147//147 151//151 150//150
f 148//148 149//149 152//152
f 148//148 152//152 151//151
f 149//149 147//147 150//150
f 149//149 150//150 152//152
f 150//150 151//151 154//154
f 150//150 154//154 153//153
f 151//151 152//152 155//155
f 151//151 155//155 154//154
f 152//152 150//150 153//153
f 152//152 153//153 155//155
f 153//153 154//154 157//157
f 153//153 157//157 156//156
f 154//154 155//155 158//158
f 154//154 158//158 157//157
f 155//155 153//153 156//156
f 155//155 156//156 158//158
f 145//145 144//144 159//159
f 146//146 145//145 159//159
f 144//144 146//146 159//159
f 156//156 157//157 160//160
f 157//157 158//158 160//160
f 158//158 156//156 160//160
# 304 faces, 0 coords texture

# End of File