# This file uses centimeters as units for non-parametric coordinates.

v 0.000000 -0.404695 0.424634
v 0.000000 -0.006659 0.866083
v 0.000000 0.578084 0.700829
v 0.000000 0.809317 0.007129
v 0.000000 0.578084 -0.686571
v 0.000000 -0.006659 -0.851825
v 0.000000 -0.404695 -0.410376
v 0.224534 -0.225476 0.638837
v 0.212550 -0.244926 0.533362
v 0.236076 -0.346850 0.007129
v 0.458734 -0.164225 -0.079141
v 0.417673 -0.155352 0.007129
v 0.242057 -0.200250 -0.629225
v 0.222861 -0.214032 -0.507408
v 0.460935 -0.166994 0.079826
v 0.300725 0.367176 0.705478
v 0.309540 0.055621 0.735932
v 0.317512 0.088651 0.642707
v 0.408593 0.553031 0.007129
v 0.502418 0.217744 0.007129
v 0.550064 0.202067 0.088331
v 0.550384 0.203954 -0.073221
v 0.311359 0.068488 -0.721160
v 0.311783 0.356078 -0.690017
v 0.310633 0.102717 -0.607108
v 0.317215 -0.203990 -0.465764
v 0.394952 0.117084 -0.579393
v 0.389143 0.101131 0.611159
v 0.290587 -0.234502 0.501368
v 0.000000 0.024324 0.977709
v 0.054512 -0.028102 0.985649
v 0.069973 -0.076907 0.977207
v 0.050388 -0.140270 0.955931
v 0.000000 -0.167789 0.935233
v 0.000000 -0.025510 -0.988368
v 0.000000 -0.149971 -0.959378
v 0.033970 -0.127494 -0.976698
v 0.049292 -0.086471 -0.983986
v 0.039340 -0.056100 -0.990092
v -0.212550 -0.244926 0.533362
v -0.224534 -0.225476 0.638837
v -0.236076 -0.346850 0.007129
v -0.458734 -0.164225 -0.079141
v -0.417673 -0.155352 0.007129
v -0.242057 -0.200250 -0.629225
v -0.222861 -0.214032 -0.507408
v -0.460935 -0.166994 0.079826
v -0.300725 0.367176 0.705478
v -0.309540 0.055621 0.735932
v -0.317512 0.088651 0.642707
v -0.502418 0.217744 0.007129
v -0.408593 0.553031 0.007129
v -0.550064 0.202067 0.088331
v -0.550384 0.203954 -0.073221
v -0.311359 0.068488 -0.721160
v -0.311783 0.356078 -0.690017
v -0.310633 0.102717 -0.607108
v -0.054512 -0.028102 0.985649
v -0.039339 -0.056100 -0.990092
v -0.317215 -0.203990 -0.465764
v -0.394952 0.117084 -0.579393
v -0.389143 0.101131 0.611159
v -0.290587 -0.234502 0.501368
v -0.033970 -0.127494 -0.976698
v -0.049292 -0.086471 -0.983986
v -0.069973 -0.076907 0.977207
v -0.050388 -0.140270 0.955931
vt 0.843594 0.568742
vt 0.861244 0.603132
vt 0.916111 0.449541
vt 0.632818 0.309250
vt 0.504507 0.394496
vt 0.538131 0.431959
vt 0.425275 0.070791
vt 0.282397 0.174597
vt 0.315774 0.184200
vt 0.577832 0.449737
vt 0.690252 0.820794
vt 0.789295 0.726156
vt 0.756185 0.712418
vt 0.443443 0.554669
vt 0.348755 0.677378
vt 0.481421 0.573825
vt 0.415010 0.523852
vt 0.186075 0.269080
vt 0.127200 0.379505
vt 0.206272 0.297610
vt 0.624320 0.929170
vt 0.893038 0.823963
vt 0.911878 0.801621
vt 0.254067 0.800087
vt 0.035315 0.474669
vt 0.083718 0.148921
vt 0.071968 0.162263
vt 0.353827 0.226601
vt 0.235895 0.329716
vt 0.725951 0.697169
vt 0.808048 0.552825
vt 0.106202 0.123902
vt 0.118776 0.110298
vt 0.094638 0.139920
vt 0.922143 0.781277
vt 0.938572 0.753786
vt 0.952854 0.734599
vt 0.960946 0.797377
vt 0.077439 0.115626
vt 0.624320 0.929170
vt 0.893038 0.823963
vt 0.690252 0.820794
vt 0.911878 0.801621
vt 0.083718 0.148921
vt 0.071968 0.162263
vt 0.127200 0.379505
vt 0.035315 0.474669
vt 0.106202 0.123902
vt 0.282397 0.174597
vt 0.118776 0.110298
vt 0.425275 0.070791
vt 0.186075 0.269080
vt 0.094638 0.139920
vt 0.789295 0.726156
vt 0.922143 0.781277
vt 0.861244 0.603132
vt 0.938572 0.753786
vt 0.916111 0.449541
vt 0.952854 0.734599
vt 0.960946 0.797377
vt 0.077439 0.115626
vt 0.843594 0.568742
vt 0.916111 0.449541
vt 0.861244 0.603132
vt 0.632818 0.309250
vt 0.538131 0.431959
vt 0.504507 0.394496
vt 0.425275 0.070791
vt 0.315774 0.184200
vt 0.282397 0.174597
vt 0.577832 0.449737
vt 0.690252 0.820794
vt 0.756185 0.712418
vt 0.789295 0.726156
vt 0.443443 0.554669
vt 0.481421 0.573825
vt 0.348755 0.677378
vt 0.415010 0.523852
vt 0.186075 0.269080
vt 0.206272 0.297610
vt 0.127200 0.379505
vt 0.624320 0.929170
vt 0.893038 0.823963
vt 0.911878 0.801621
vt 0.254067 0.800087
vt 0.035315 0.474669
vt 0.083718 0.148921
vt 0.071968 0.162263
vt 0.353827 0.226601
vt 0.235895 0.329716
vt 0.725951 0.697169
vt 0.808048 0.552825
vt 0.106202 0.123902
vt 0.118776 0.110298
vt 0.094638 0.139920
vt 0.922143 0.781277
vt 0.938572 0.753786
vt 0.952854 0.734599
vt 0.960946 0.797377
vt 0.077439 0.115626
vt 0.624320 0.929170
vt 0.690252 0.820794
vt 0.893038 0.823963
vt 0.911878 0.801621
vt 0.083718 0.148921
vt 0.127200 0.379505
vt 0.071968 0.162263
vt 0.035315 0.474669
vt 0.106202 0.123902
vt 0.118776 0.110298
vt 0.282397 0.174597
vt 0.425275 0.070791
vt 0.186075 0.269080
vt 0.094638 0.139920
vt 0.789295 0.726156
vt 0.922143 0.781277
vt 0.861244 0.603132
vt 0.938572 0.753786
vt 0.916111 0.449541
vt 0.952854 0.734599
vt 0.960946 0.797377
vt 0.077439 0.115626
vt 0.421956 0.068911
vt 0.668979 0.257338
vt 0.633219 0.307235
vt 0.917926 0.447832
vt 0.633269 0.310903
vt 0.668929 0.259622
vn 0.695549 -0.613174 0.374472
vn 0.646366 -0.659843 0.383168
vn 0.000000 -0.978610 0.205724
vn 0.436196 -0.898753 -0.044450
vn 0.885369 -0.433221 -0.168648
vn 0.934573 -0.355544 -0.012752
vn 0.000000 -0.974733 -0.223372
vn 0.681447 -0.642138 -0.351125
vn 0.732335 -0.584062 -0.350082
vn 0.879680 -0.444687 0.168572
vn 0.719623 0.459586 0.520504
vn 0.815069 -0.167162 0.554725
vn 0.836122 -0.298575 0.460166
vn 0.999916 0.012817 0.002128
vn 0.689215 0.724556 0.000798
vn 0.976899 0.126800 0.172019
vn 0.978897 0.122304 -0.163716
vn 0.833044 -0.159816 -0.529619
vn 0.652203 0.530441 -0.541539
vn 0.849606 -0.306715 -0.429064
vn 0.000000 0.843007 0.537902
vn -0.002971 -0.247090 0.968988
vn -0.267442 -0.226458 0.936585
vn 0.000000 1.000000 0.000000
vn -0.004767 0.840772 -0.541369
vn -0.323466 -0.349498 -0.879330
vn 0.015542 -0.423719 -0.905660
vn 0.658816 -0.678888 -0.324149
vn 0.916477 -0.171285 -0.361569
vn 0.921453 -0.165490 0.351479
vn 0.666205 -0.685835 0.292917
vn -0.172864 -0.246295 -0.953655
vn -0.056684 -0.317975 -0.946403
vn -0.178211 -0.204776 -0.962449
vn -0.120896 -0.261640 0.957564
vn -0.113449 -0.353110 0.928678
vn 0.009904 -0.406803 0.913462
vn 0.000000 -0.177287 0.984159
vn -0.178211 -0.204776 -0.962449
vn -0.646366 -0.659843 0.383168
vn -0.934573 -0.355544 -0.012752
vn -0.390445 -0.918989 0.054878
vn 0.000000 -0.974733 -0.223372
vn -0.972829 -0.189558 0.132937
vn -0.436196 -0.898753 -0.044450
vn -0.816085 -0.336958 -0.469537
vn -0.965022 -0.085010 0.248003
vn -0.693261 0.593150 0.409344
vn -0.999916 0.012817 0.002128
vn -0.976899 0.126800 0.172019
vn -0.689215 0.724556 0.000798
vn -0.978897 0.122304 -0.163716
vn -0.748628 0.658080 0.080538
vn -0.689215 0.724556 0.000798
vn -0.716544 -0.295775 -0.631729
vn 0.000000 0.843007 0.537902
vn -0.216052 0.442142 -0.870536
vn 0.261088 -0.117974 0.958079
vn -0.015542 -0.423719 -0.905660
vn -0.951211 -0.291056 -0.102394
vn -0.981141 -0.133851 -0.139450
vn -0.884877 0.212392 0.414587
vn -0.666205 -0.685835 0.292917
vn 0.076101 -0.169006 -0.982673
vn 0.172864 -0.246295 -0.953655
vn 0.113449 -0.353110 0.928678
vn 0.120896 -0.261640 0.957564
s 1
f 9/1/1 8/2/2 1/3/3
f 10/4/4 11/5/5 12/6/6
f 7/7/7 13/8/8 14/9/9
f 10/4/4 12/6/6 15/10/10
f 16/11/11 17/12/12 18/13/13
f 20/14/14 19/15/15 21/16/16
f 22/17/17 19/15/15 20/14/14
f 23/18/18 24/19/19 25/20/20
f 3/21/21 30/22/22 16/11/11
f 16/11/11 30/22/22 31/23/23
f 4/24/24 3/21/21 19/15/15
f 19/15/15 3/21/21 16/11/11
f 24/19/19 5/25/25 19/15/15
f 19/15/15 5/25/25 4/24/24
f 39/26/26 35/27/27 24/19/19
f 35/27/27 5/25/25 24/19/19
f 17/12/12 8/2/2 18/13/13
f 18/13/13 8/2/2 9/1/1
f 20/14/14 21/16/16 12/6/6
f 12/6/6 21/16/16 15/10/10
f 11/5/5 22/17/17 12/6/6
f 12/6/6 22/17/17 20/14/14
f 23/18/18 25/20/20 13/8/8
f 13/8/8 25/20/20 14/9/9
f 26/28/28 7/7/7 14/9/9
f 14/9/9 25/20/20 26/28/28
f 26/28/28 25/20/20 27/29/29
f 25/20/20 24/19/19 27/29/29
f 28/30/30 16/11/11 18/13/13
f 28/30/30 18/13/13 29/31/31
f 29/31/31 18/13/13 9/1/1
f 1/3/3 29/31/31 9/1/1
f 19/15/15 22/17/17 24/19/19
f 24/19/19 22/17/17 27/29/29
f 26/28/28 27/29/29 11/5/5
f 11/5/5 27/29/29 22/17/17
f 7/7/7 26/28/28 10/4/4
f 10/4/4 26/28/28 11/5/5
f 37/32/32 13/8/8 36/33/33
f 7/7/7 36/33/33 13/8/8
f 23/18/18 13/8/8 38/34/34
f 38/34/34 13/8/8 37/32/32
f 39/26/26 24/19/19 38/34/34
s 2
f 24/19/19 23/18/18 38/34/34
s 1
f 16/11/11 31/23/23 17/12/12
f 17/12/12 31/23/23 32/35/35
f 8/2/2 17/12/12 33/36/36
f 33/36/36 17/12/12 32/35/35
f 1/3/3 8/2/2 34/37/37
f 34/37/37 8/2/2 33/36/36
f 15/10/10 29/31/31 10/4/4
f 10/4/4 29/31/31 1/3/3
f 21/16/16 28/30/30 15/10/10
f 15/10/10 28/30/30 29/31/31
f 19/15/15 16/11/11 21/16/16
f 21/16/16 16/11/11 28/30/30
f 2/38/38 34/37/37 30/22/22
f 34/37/37 33/36/36 30/22/22
f 33/36/36 32/35/35 30/22/22
s 3
f 32/35/35 31/23/23 30/22/22
s 1
f 36/33/33 6/39/39 37/32/32
f 37/32/32 6/39/39 38/34/34
f 38/34/34 6/39/39 39/26/26
f 39/26/26 6/39/39 35/27/27
f 3/40/21 30/41/22 16/42/11
f 16/42/11 30/41/22 31/43/23
s 4
f 39/44/26 35/45/27 24/46/19
s 1
f 35/45/27 5/47/25 24/46/19
s 5
f 37/48/32 13/49/8 36/50/33
s 1
f 7/51/7 36/50/33 13/49/8
f 23/52/18 13/49/8 38/53/34
f 38/53/34 13/49/8 37/48/32
f 39/44/26 24/46/19 38/53/34
f 24/46/19 23/52/18 38/53/34
f 16/42/11 31/43/23 17/54/12
f 17/54/12 31/43/23 32/55/35
f 8/56/2 17/54/12 33/57/36
f 33/57/36 17/54/12 32/55/35
f 1/58/3 8/56/2 34/59/37
f 34/59/37 8/56/2 33/57/36
s 6
f 2/60/38 34/59/37 30/41/22
s 1
f 34/59/37 33/57/36 30/41/22
f 33/57/36 32/55/35 30/41/22
f 32/55/35 31/43/23 30/41/22
f 36/50/33 6/61/39 37/48/32
f 37/48/32 6/61/39 38/53/34
f 38/53/34 6/61/39 39/44/26
f 39/44/26 6/61/39 35/45/27
f 40/62/40 1/63/3 41/64/41
f 42/65/42 44/66/43 43/67/44
f 7/68/7 46/69/45 45/70/46
f 42/65/42 47/71/47 44/66/43
f 48/72/48 50/73/49 49/74/50
f 51/75/51 53/76/52 52/77/53
f 54/78/54 51/75/51 52/77/53
f 55/79/55 57/80/56 56/81/57
f 3/82/21 48/72/48 30/83/22
f 48/72/48 58/84/58 30/83/22
f 4/85/24 52/77/53 3/82/21
f 52/77/53 48/72/48 3/82/21
f 56/81/57 52/77/53 5/86/25
f 52/77/53 4/85/24 5/86/25
f 59/87/59 56/81/57 35/88/27
s 7
f 35/88/27 56/81/57 5/86/25
s 1
f 49/74/50 50/73/49 41/64/41
f 50/73/49 40/62/40 41/64/41
f 51/75/51 44/66/43 53/76/52
f 44/66/43 47/71/47 53/76/52
f 43/67/44 44/66/43 54/78/54
f 44/66/43 51/75/51 54/78/54
f 55/79/55 45/70/46 57/80/56
f 45/70/46 46/69/45 57/80/56
f 60/89/60 46/69/45 7/68/7
f 46/69/45 60/89/60 57/80/56
f 60/89/60 61/90/61 57/80/56
f 57/80/56 61/90/61 56/81/57
f 62/91/62 50/73/49 48/72/48
f 62/91/62 63/92/63 50/73/49
f 63/92/63 40/62/40 50/73/49
f 1/63/3 40/62/40 63/92/63
f 52/77/53 56/81/57 54/78/54
f 56/81/57 61/90/61 54/78/54
f 60/89/60 43/67/44 61/90/61
f 43/67/44 54/78/54 61/90/61
f 7/68/7 42/65/42 60/89/60
f 42/65/42 43/67/44 60/89/60
f 64/93/64 36/94/33 45/70/46
s 8
f 7/68/7 45/70/46 36/94/33
s 1
f 55/79/55 65/95/65 45/70/46
f 65/95/65 64/93/64 45/70/46
f 59/87/59 65/95/65 56/81/57
s 9
f 56/81/57 65/95/65 55/79/55
s 1
f 48/72/48 49/74/50 58/84/58
f 49/74/50 66/96/66 58/84/58
f 41/64/41 67/97/67 49/74/50
f 67/97/67 66/96/66 49/74/50
f 1/63/3 34/98/37 41/64/41
f 34/98/37 67/97/67 41/64/41
f 47/71/47 42/65/42 63/92/63
f 42/65/42 1/63/3 63/92/63
f 53/76/52 47/71/47 62/91/62
f 47/71/47 63/92/63 62/91/62
f 52/77/53 53/76/52 48/72/48
f 53/76/52 62/91/62 48/72/48
s 10
f 2/99/38 30/83/22 34/98/37
s 1
f 34/98/37 30/83/22 67/97/67
f 67/97/67 30/83/22 66/96/66
s 11
f 66/96/66 30/83/22 58/84/58
s 1
f 36/94/33 64/93/64 6/100/39
f 64/93/64 65/95/65 6/100/39
f 65/95/65 59/87/59 6/100/39
s 12
f 59/87/59 35/88/27 6/100/39
s 1
f 3/101/21 48/102/48 30/103/22
f 48/102/48 58/104/58 30/103/22
s 13
f 59/105/59 56/106/57 35/107/27
s 1
f 35/107/27 56/106/57 5/108/25
s 14
f 64/109/64 36/110/33 45/111/46
s 1
f 7/112/7 45/111/46 36/110/33
f 55/113/55 65/114/65 45/111/46
f 65/114/65 64/109/64 45/111/46
f 59/105/59 65/114/65 56/106/57
f 56/106/57 65/114/65 55/113/55
f 48/102/48 49/115/50 58/104/58
f 49/115/50 66/116/66 58/104/58
f 41/117/41 67/118/67 49/115/50
f 67/118/67 66/116/66 49/115/50
f 1/119/3 34/120/37 41/117/41
f 34/120/37 67/118/67 41/117/41
f 2/121/38 30/103/22 34/120/37
f 34/120/37 30/103/22 67/118/67
f 67/118/67 30/103/22 66/116/66
f 66/116/66 30/103/22 58/104/58
f 36/110/33 64/109/64 6/122/39
f 64/109/64 65/114/65 6/122/39
f 65/114/65 59/105/59 6/122/39
f 59/105/59 35/107/27 6/122/39
f 7/123/7 10/124/4 42/125/42
f 1/126/3 42/127/42 10/128/4
