# This file uses centimeters as units for non-parametric coordinates.

v 0.000000 0.036125 -0.572053
v -0.000000 0.060664 -0.368941
v 0.774655 0.028809 -0.870837
v 1.037862 -0.261764 -0.973993
v 0.074491 -0.026436 -0.610159
v 0.174991 -0.001898 -0.422847
v 0.138036 0.058409 -0.410919
v 0.121014 0.078162 -0.408741
v 0.225500 -0.043486 -0.530558
v 0.598013 -0.301060 -0.732849
v 0.195762 -0.050747 -0.585982
v 0.216376 0.028194 -0.509895
v 0.186638 0.020934 -0.565320
v -0.225500 -0.043486 -0.530558
v -0.598013 -0.301060 -0.732849
v -1.037862 -0.261764 -0.973993
v -0.138036 0.058409 -0.410919
v -0.174991 -0.001898 -0.422847
v -0.121014 0.078162 -0.408741
v -0.774655 0.028809 -0.870837
v -0.216376 0.028194 -0.509895
v -0.195762 -0.050747 -0.585982
v -0.074491 -0.026436 -0.610159
v -0.186638 0.020934 -0.565320
v 0.000000 0.033081 0.101348
v -0.000000 0.037869 -0.063747
v 0.588820 -0.031193 -0.016882
v 1.508282 0.003846 -0.060991
v 1.060885 -0.191543 -0.026888
v 0.436237 0.035749 -0.063891
v 0.491090 -0.020960 -0.067725
v 0.375231 0.098819 -0.059626
v 1.155313 0.248007 -0.035797
v 0.559863 0.048097 -0.015069
v 0.588265 -0.032609 0.031969
v 0.434363 0.030961 0.101205
v 0.489216 -0.025748 0.097370
v 0.373358 0.094031 0.105469
v 0.559308 0.046680 0.033782
v -0.588820 -0.031193 -0.016882
v -1.508282 0.003846 -0.060991
v -1.060885 -0.191543 -0.026888
v -0.436237 0.035749 -0.063891
v -0.491090 -0.020960 -0.067725
v -0.375231 0.098819 -0.059626
v -1.155313 0.248007 -0.035797
v -0.559863 0.048097 -0.015069
v -0.588265 -0.032609 0.031969
v -0.434363 0.030961 0.101205
v -0.489216 -0.025748 0.097370
v -0.373358 0.094031 0.105469
v -0.559309 0.046680 0.033782
v 0.000000 -0.001705 0.367588
v -0.000000 -0.032932 0.489719
v 0.363199 0.028404 0.537693
v 0.823583 -0.000659 0.932642
v 0.984521 -0.275880 0.988251
v 0.395491 -0.061924 0.542174
v 0.313108 -0.093151 0.664305
v 0.280817 -0.002823 0.659824
v 0.400478 -0.110423 0.655083
v 0.665954 -0.338067 0.762738
v 0.424855 -0.101183 0.618945
v 0.400723 -0.039599 0.668718
v 0.425100 -0.030359 0.632580
v -0.400478 -0.110423 0.655083
v -0.665954 -0.338067 0.762738
v -0.984521 -0.275880 0.988251
v -0.280817 -0.002823 0.659824
v -0.313108 -0.093151 0.664305
v -0.823583 -0.000659 0.932642
v -0.400723 -0.039599 0.668718
v -0.424855 -0.101183 0.618945
v -0.363199 0.028404 0.537693
v -0.395491 -0.061924 0.542174
v -0.425100 -0.030359 0.632580
vt 0.291858 0.085359
vt 0.815349 0.305869
vt 0.992407 0.986962
vt 0.109638 0.032163
vt 0.205538 0.005765
vt 0.002982 0.061521
vt 0.486373 0.992304
vt 0.195840 0.166536
vt 0.291858 0.085359
vt 0.056310 0.046842
vt 0.205538 0.005765
vt 0.195840 0.166536
vt 0.106053 0.033150
vt 0.205538 0.005765
vt 0.291858 0.085359
vt 0.815349 0.305869
vt 0.992407 0.986962
vt 0.109638 0.032163
vt 0.205538 0.005765
vt 0.002982 0.061521
vt 0.486373 0.992304
vt 0.195840 0.166536
vt 0.291858 0.085359
vt 0.056310 0.046842
vt 0.205538 0.005765
vt 0.195840 0.166536
vt 0.106053 0.033150
vt 0.205538 0.005765
vt 0.291858 0.085359
vt 0.992407 0.986962
vt 0.815349 0.305869
vt 0.109638 0.032163
vt 0.205538 0.005765
vt 0.002982 0.061521
vt 0.486373 0.992304
vt 0.195840 0.166536
vt 0.291858 0.085359
vt 0.109638 0.032163
vt 0.205538 0.005765
vt 0.002982 0.061521
vt 0.195840 0.166536
vt 0.106053 0.033150
vt 0.106053 0.033150
vt 0.291858 0.085359
vt 0.815349 0.305869
vt 0.992407 0.986962
vt 0.109638 0.032163
vt 0.205538 0.005765
vt 0.002982 0.061521
vt 0.486373 0.992304
vt 0.195840 0.166536
vt 0.291858 0.085359
vt 0.109638 0.032163
vt 0.205538 0.005765
vt 0.002982 0.061521
vt 0.195840 0.166536
vt 0.106053 0.033150
vt 0.106053 0.033150
vt 0.291858 0.085359
vt 0.815349 0.305869
vt 0.992407 0.986962
vt 0.056310 0.046842
vt 0.205538 0.005765
vt 0.195840 0.166536
vt 0.486373 0.992304
vt 0.291858 0.085359
vt 0.056310 0.046842
vt 0.205538 0.005765
vt 0.195840 0.166536
vt 0.109638 0.032163
vt 0.002982 0.061521
vt 0.002982 0.061521
vt 0.109638 0.032163
vt 0.205538 0.005765
vt 0.205538 0.005765
vt 0.205538 0.005765
vt 0.109638 0.032163
vt 0.109638 0.032163
vt 0.109638 0.032163
vt 0.056310 0.046842
vt 0.056310 0.046842
vt 0.291858 0.085359
vt 0.992407 0.986962
vt 0.815349 0.305869
vt 0.056310 0.046842
vt 0.205538 0.005765
vt 0.195840 0.166536
vt 0.486373 0.992304
vt 0.291858 0.085359
vt 0.056310 0.046842
vt 0.205538 0.005765
vt 0.195840 0.166536
vt 0.109638 0.032163
vt 0.109638 0.032163
vt 0.002982 0.061521
vt 0.002982 0.061521
vt 0.205538 0.005765
vt 0.205538 0.005765
vt 0.205538 0.005765
vt 0.109638 0.032163
vt 0.109638 0.032163
vt 0.109638 0.032163
vt 0.056310 0.046842
vt 0.056310 0.046842
vn 0.480326 0.005839 0.877071
vn 0.480326 0.005839 0.877071
vn 0.480326 0.005839 0.877071
vn 0.568501 0.190059 0.800428
vn 0.568501 0.190059 0.800428
vn 0.568501 0.190059 0.800428
vn 0.579943 0.199145 0.789941
vn 0.579943 0.199145 0.789941
vn 0.508614 0.160405 0.845921
vn 0.508614 0.160405 0.845921
vn 0.508614 0.160405 0.845921
vn -0.453391 -0.222136 -0.863187
vn -0.453391 -0.222136 -0.863187
vn -0.453391 -0.222136 -0.863187
vn -0.360941 -0.036873 -0.931860
vn -0.360941 -0.036873 -0.931860
vn -0.360941 -0.036873 -0.931860
vn -0.428619 -0.068429 -0.900890
vn -0.428619 -0.068429 -0.900890
vn -0.428619 -0.068429 -0.900890
vn -0.346902 -0.027152 -0.937508
vn 0.036787 0.988125 -0.149183
vn 0.036787 0.988125 -0.149183
vn -0.073303 -0.941437 0.329126
vn -0.073303 -0.941437 0.329126
vn -0.073303 -0.941437 0.329126
vn -0.329912 -0.896897 0.294506
vn -0.329912 -0.896897 0.294506
vn -0.329912 -0.896897 0.294506
vn -0.329912 -0.896897 0.294506
vn -0.210182 -0.974857 0.074011
vn -0.210182 -0.974857 0.074011
vn -0.210182 -0.974857 0.074011
vn 0.216014 -0.908595 0.357483
vn 0.216014 -0.908595 0.357483
vn 0.216014 -0.908595 0.357483
vn 0.318637 0.947417 -0.029516
vn 0.318637 0.947417 -0.029516
vn 0.318637 0.947417 -0.029516
vn 0.100280 0.894103 -0.436490
vn 0.100280 0.894103 -0.436490
vn 0.100280 0.894103 -0.436490
vn -0.075359 -0.979736 -0.185576
vn -0.075359 -0.979736 -0.185576
vn -0.075359 -0.979736 -0.185576
vn -0.716913 -0.529104 0.453965
vn -0.716913 -0.529104 0.453965
vn -0.716913 -0.529104 0.453965
vn -0.716912 -0.529105 0.453965
vn -0.329912 -0.896897 0.294506
vn -0.329912 -0.896897 0.294506
vn -0.329912 -0.896897 0.294506
vn -0.480326 0.005839 0.877071
vn -0.480326 0.005839 0.877071
vn -0.480326 0.005839 0.877071
vn -0.568501 0.190059 0.800428
vn -0.568501 0.190059 0.800428
vn -0.568501 0.190059 0.800428
vn -0.579943 0.199145 0.789941
vn -0.579943 0.199145 0.789941
vn -0.508614 0.160405 0.845921
vn -0.508614 0.160405 0.845921
vn -0.508614 0.160405 0.845921
vn 0.453391 -0.222136 -0.863187
vn 0.453391 -0.222136 -0.863187
vn 0.453391 -0.222136 -0.863187
vn 0.360941 -0.036873 -0.931860
vn 0.360941 -0.036873 -0.931860
vn 0.360941 -0.036873 -0.931860
vn 0.428619 -0.068429 -0.900890
vn 0.428619 -0.068429 -0.900890
vn 0.428619 -0.068429 -0.900890
vn 0.346902 -0.027152 -0.937508
vn -0.036787 0.988125 -0.149183
vn -0.036787 0.988125 -0.149183
vn 0.073303 -0.941437 0.329126
vn 0.073303 -0.941437 0.329126
vn 0.073303 -0.941437 0.329126
vn 0.329912 -0.896897 0.294506
vn 0.329912 -0.896897 0.294506
vn 0.329912 -0.896897 0.294506
vn 0.329912 -0.896897 0.294506
vn 0.210182 -0.974857 0.074011
vn 0.210182 -0.974857 0.074011
vn 0.210182 -0.974857 0.074011
vn -0.216014 -0.908595 0.357483
vn -0.216014 -0.908595 0.357483
vn -0.216014 -0.908595 0.357483
vn -0.318637 0.947417 -0.029516
vn -0.318637 0.947417 -0.029516
vn -0.318637 0.947417 -0.029516
vn -0.100280 0.894103 -0.436490
vn -0.100280 0.894103 -0.436490
vn -0.100280 0.894103 -0.436490
vn 0.075359 -0.979736 -0.185576
vn 0.075359 -0.979736 -0.185576
vn 0.075359 -0.979736 -0.185576
vn 0.716913 -0.529104 0.453965
vn 0.716913 -0.529104 0.453965
vn 0.716913 -0.529104 0.453965
vn 0.716912 -0.529105 0.453965
vn 0.329912 -0.896897 0.294506
vn 0.329912 -0.896897 0.294506
vn 0.329912 -0.896897 0.294506
vn -0.045113 -0.070625 -0.996482
vn -0.045113 -0.070625 -0.996482
vn -0.045113 -0.070625 -0.996482
vn 0.004845 0.072126 -0.997384
vn 0.004845 0.072126 -0.997384
vn 0.004845 0.072126 -0.997384
vn 0.014814 0.081714 -0.996546
vn 0.014814 0.081714 -0.996546
vn -0.046678 0.035527 -0.998278
vn -0.046678 0.035527 -0.998278
vn -0.046678 0.035527 -0.998278
vn 0.102769 -0.062044 0.992768
vn 0.102769 -0.062044 0.992768
vn 0.102769 -0.062044 0.992768
vn 0.150824 0.079258 0.985378
vn 0.150824 0.079258 0.985378
vn 0.150824 0.079258 0.985378
vn 0.160187 0.088468 0.983114
vn 0.160187 0.088468 0.983114
vn 0.101236 0.043796 0.993898
vn 0.101236 0.043796 0.993898
vn 0.101236 0.043796 0.993898
vn -0.188553 0.981710 0.026331
vn -0.188553 0.981710 0.026331
vn -0.188553 0.981710 0.026331
vn 0.025258 -0.969529 -0.243672
vn 0.025258 -0.969529 -0.243672
vn 0.025258 -0.969529 -0.243672
vn -0.215223 -0.976081 -0.030749
vn -0.215223 -0.976081 -0.030749
vn -0.215223 -0.976081 -0.030749
vn 0.058109 -0.979905 0.190811
vn 0.058109 -0.979905 0.190811
vn 0.058109 -0.979905 0.190811
vn 0.267454 -0.844707 -0.463614
vn 0.267454 -0.844707 -0.463614
vn 0.267454 -0.844707 -0.463614
vn 0.029092 0.949076 -0.313700
vn 0.029092 0.949076 -0.313700
vn 0.029092 0.949076 -0.313700
vn 0.078015 0.929216 0.361208
vn 0.078015 0.929216 0.361208
vn 0.078015 0.929216 0.361208
vn 0.333952 -0.842639 0.422416
vn 0.333952 -0.842639 0.422416
vn 0.333952 -0.842639 0.422416
vn -0.719439 -0.693979 -0.028290
vn -0.719439 -0.693979 -0.028290
vn -0.215223 -0.976081 -0.030749
vn -0.215223 -0.976081 -0.030749
vn -0.719439 -0.693979 -0.028290
vn -0.719439 -0.693979 -0.028290
vn -0.719438 -0.693980 -0.028290
vn -0.719438 -0.693980 -0.028290
vn -0.215223 -0.976081 -0.030749
vn -0.215223 -0.976081 -0.030749
vn 0.045113 -0.070625 -0.996482
vn 0.045113 -0.070625 -0.996482
vn 0.045113 -0.070625 -0.996482
vn -0.004845 0.072126 -0.997384
vn -0.004845 0.072126 -0.997384
vn -0.004845 0.072126 -0.997384
vn -0.014814 0.081714 -0.996546
vn -0.014814 0.081714 -0.996546
vn 0.046678 0.035527 -0.998278
vn 0.046678 0.035527 -0.998278
vn 0.046678 0.035527 -0.998278
vn -0.102769 -0.062044 0.992768
vn -0.102769 -0.062044 0.992768
vn -0.102769 -0.062044 0.992768
vn -0.150824 0.079258 0.985378
vn -0.150824 0.079258 0.985378
vn -0.150824 0.079258 0.985378
vn -0.160187 0.088468 0.983114
vn -0.160187 0.088468 0.983114
vn -0.101236 0.043796 0.993898
vn -0.101236 0.043796 0.993898
vn -0.101236 0.043796 0.993898
vn 0.188553 0.981710 0.026331
vn 0.188553 0.981710 0.026331
vn 0.188553 0.981710 0.026331
vn -0.025258 -0.969529 -0.243672
vn -0.025258 -0.969529 -0.243672
vn -0.025258 -0.969529 -0.243672
vn 0.215223 -0.976081 -0.030749
vn 0.215223 -0.976081 -0.030749
vn 0.215223 -0.976081 -0.030749
vn -0.058109 -0.979905 0.190811
vn -0.058109 -0.979905 0.190811
vn -0.058109 -0.979905 0.190811
vn -0.267454 -0.844707 -0.463614
vn -0.267454 -0.844707 -0.463614
vn -0.267454 -0.844707 -0.463614
vn -0.029092 0.949076 -0.313700
vn -0.029092 0.949076 -0.313700
vn -0.029092 0.949076 -0.313700
vn -0.078015 0.929216 0.361208
vn -0.078015 0.929216 0.361208
vn -0.078015 0.929216 0.361208
vn -0.333952 -0.842639 0.422416
vn -0.333952 -0.842639 0.422416
vn -0.333952 -0.842639 0.422416
vn 0.719439 -0.693979 -0.028290
vn 0.719439 -0.693979 -0.028290
vn 0.215223 -0.976081 -0.030749
vn 0.719439 -0.693979 -0.028290
vn 0.215223 -0.976081 -0.030749
vn 0.719439 -0.693979 -0.028290
vn 0.719438 -0.693980 -0.028290
vn 0.719438 -0.693980 -0.028290
vn 0.215223 -0.976081 -0.030749
vn 0.215223 -0.976081 -0.030749
vn -0.530909 -0.233956 0.814494
vn -0.530909 -0.233956 0.814494
vn -0.530909 -0.233956 0.814494
vn -0.457699 -0.119920 0.880983
vn -0.457699 -0.119920 0.880983
vn -0.457699 -0.119920 0.880983
vn -0.516224 -0.130850 0.846399
vn -0.516224 -0.130850 0.846399
vn -0.516224 -0.130850 0.846399
vn 0.565885 0.077703 -0.820814
vn 0.565885 0.077703 -0.820814
vn 0.565885 0.077703 -0.820814
vn 0.635667 0.190130 -0.748183
vn 0.635667 0.190130 -0.748183
vn 0.635667 0.190130 -0.748183
vn 0.582982 0.180858 -0.792100
vn 0.582982 0.180858 -0.792100
vn 0.582982 0.180858 -0.792100
vn -0.052835 0.975454 0.213771
vn -0.052835 0.975454 0.213771
vn -0.052835 0.975454 0.213771
vn -0.204940 -0.971020 -0.122965
vn -0.204940 -0.971020 -0.122965
vn -0.204940 -0.971020 -0.122965
vn -0.341966 -0.828942 -0.442621
vn -0.341966 -0.828942 -0.442621
vn -0.341966 -0.828942 -0.442621
vn -0.341966 -0.828942 -0.442621
vn 0.029958 -0.885246 -0.464157
vn 0.029958 -0.885246 -0.464157
vn 0.029958 -0.885246 -0.464157
vn -0.055963 -0.970886 0.232912
vn -0.055963 -0.970886 0.232912
vn -0.055963 -0.970886 0.232912
vn -0.007515 0.797416 0.603383
vn -0.007515 0.797416 0.603383
vn -0.007515 0.797416 0.603383
vn 0.365295 0.928520 0.066405
vn 0.365295 0.928520 0.066405
vn 0.365295 0.928520 0.066405
vn 0.392202 -0.807314 -0.440934
vn 0.392202 -0.807314 -0.440934
vn 0.392202 -0.807314 -0.440934
vn -0.034797 -0.962362 -0.269535
vn -0.754068 -0.298594 -0.584999
vn -0.036470 -0.965308 -0.258554
vn -0.754068 -0.298594 -0.584999
vn -0.754068 -0.298594 -0.584999
vn -0.754068 -0.298594 -0.584999
vn 0.181454 -0.975172 -0.126941
vn 0.754067 0.298595 0.584999
vn 0.187389 -0.964642 -0.185339
vn 0.754067 0.298595 0.584999
vn -0.341966 -0.828942 -0.442621
vn -0.341966 -0.828942 -0.442621
vn -0.341966 -0.828942 -0.442621
vn 0.530909 -0.233956 0.814494
vn 0.530909 -0.233956 0.814494
vn 0.530909 -0.233956 0.814494
vn 0.457699 -0.119920 0.880983
vn 0.457699 -0.119920 0.880983
vn 0.457699 -0.119920 0.880983
vn 0.516224 -0.130850 0.846399
vn 0.516224 -0.130850 0.846399
vn 0.516224 -0.130850 0.846399
vn -0.565885 0.077703 -0.820814
vn -0.565885 0.077703 -0.820814
vn -0.565885 0.077703 -0.820814
vn -0.635667 0.190130 -0.748183
vn -0.635667 0.190130 -0.748183
vn -0.635667 0.190130 -0.748183
vn -0.582982 0.180858 -0.792100
vn -0.582982 0.180858 -0.792100
vn -0.582982 0.180858 -0.792100
vn 0.052835 0.975454 0.213771
vn 0.052835 0.975454 0.213771
vn 0.052835 0.975454 0.213771
vn 0.204940 -0.971020 -0.122965
vn 0.204940 -0.971020 -0.122965
vn 0.204940 -0.971020 -0.122965
vn 0.341966 -0.828942 -0.442621
vn 0.341966 -0.828942 -0.442621
vn 0.341966 -0.828942 -0.442621
vn 0.341966 -0.828942 -0.442621
vn -0.029958 -0.885246 -0.464157
vn -0.029958 -0.885246 -0.464157
vn -0.029958 -0.885246 -0.464157
vn 0.055963 -0.970886 0.232912
vn 0.055963 -0.970886 0.232912
vn 0.055963 -0.970886 0.232912
vn 0.007515 0.797416 0.603383
vn 0.007515 0.797416 0.603383
vn 0.007515 0.797416 0.603383
vn -0.365295 0.928520 0.066405
vn -0.365295 0.928520 0.066405
vn -0.365295 0.928520 0.066405
vn -0.392202 -0.807314 -0.440934
vn -0.392202 -0.807314 -0.440934
vn -0.392202 -0.807314 -0.440934
vn 0.754068 -0.298594 -0.584999
vn 0.754068 -0.298594 -0.584999
vn 0.036470 -0.965308 -0.258554
vn 0.034798 -0.962362 -0.269535
vn 0.754068 -0.298594 -0.584999
vn 0.754068 -0.298594 -0.584999
vn -0.754067 0.298595 0.584999
vn -0.754067 0.298595 0.584999
vn -0.187389 -0.964642 -0.185339
vn -0.181454 -0.975172 -0.126941
vn 0.341966 -0.828942 -0.442621
vn 0.341966 -0.828942 -0.442621
vn 0.341966 -0.828942 -0.442621
s off
f 9/1/1 10/2/2 4/3/3
s 2
f 7/4/4 6/5/5 4/3/6
f 8/6/7 7/4/4 3/7/8
s off
f 12/8/9 4/3/10 3/7/11
f 11/9/12 4/3/13 10/2/14
f 1/10/15 4/3/16 5/11/17
f 13/12/18 3/7/19 4/3/20
s 7
f 1/10/21 8/6/22 3/7/23
s off
f 6/5/24 9/1/25 4/3/26
s 9
f 5/11/27 11/9/28 6/5/29
f 6/5/29 11/9/28 9/1/30
s off
f 4/3/31 11/9/32 5/11/33
f 7/4/34 12/8/35 3/7/36
f 4/3/37 12/8/38 7/4/39
f 1/10/40 13/12/41 4/3/42
f 3/7/43 13/12/44 1/10/45
s 9
f 5/11/27 6/5/29 1/14/46
f 1/14/46 6/5/29 2/13/47
s 2
f 6/5/5 7/4/4 2/13/48
f 7/4/4 8/6/7 2/13/48
s 7
f 2/13/49 8/6/22 1/10/21
s off
f 9/1/50 11/9/51 10/2/52
f 14/15/53 16/17/54 15/16/55
s 17
f 17/18/56 16/17/57 18/19/58
f 19/20/59 20/21/60 17/18/56
s off
f 21/22/61 20/21/62 16/17/63
f 22/23/64 15/16/65 16/17/66
f 1/24/67 23/25/68 16/17/69
f 24/26/70 16/17/71 20/21/72
s 22
f 1/24/73 20/21/74 19/20/75
s off
f 18/19/76 16/17/77 14/15/78
s 24
f 23/25/79 18/19/80 22/23/81
f 22/23/81 18/19/80 14/15/82
s off
f 16/17/83 23/25/84 22/23/85
f 17/18/86 20/21/87 21/22/88
f 16/17/89 17/18/90 21/22/91
f 1/24/92 16/17/93 24/26/94
f 20/21/95 1/24/96 24/26/97
s 24
f 23/25/79 1/28/98 18/19/80
f 18/19/80 1/28/98 2/27/99
s 17
f 18/19/58 2/27/100 17/18/56
f 17/18/56 2/27/100 19/20/59
s 22
f 2/27/101 1/24/73 19/20/75
s off
f 14/15/102 15/16/103 22/23/104
f 27/29/105 28/30/106 29/31/107
s 32
f 30/32/108 28/30/109 31/33/110
f 32/34/111 33/35/112 30/32/108
s off
f 34/36/113 33/35/114 28/30/115
f 35/37/116 29/31/117 28/30/118
s 35
f 36/38/119 37/39/120 28/30/121
f 38/40/122 36/38/119 33/35/123
s off
f 39/41/124 28/30/125 33/35/126
s 37
f 38/40/127 33/35/128 32/34/129
s off
f 31/33/130 28/30/131 27/29/132
f 35/37/133 27/29/134 29/31/135
f 28/30/136 37/39/137 35/37/138
f 30/32/139 33/35/140 34/36/141
f 28/30/142 30/32/143 34/36/144
f 36/38/145 28/30/146 39/41/147
f 33/35/148 36/38/149 39/41/150
s 35
f 37/39/120 36/38/119 25/42/151
s 32
f 30/32/108 31/33/110 26/43/152
s 45
f 31/33/153 37/39/154 26/43/155
f 26/43/155 37/39/154 25/42/156
s 35
f 36/38/119 38/40/122 25/42/151
s 37
f 38/40/127 32/34/129 25/42/157
f 25/42/157 32/34/129 26/43/158
s 32
f 32/34/111 30/32/108 26/43/152
s 45
f 37/39/154 31/33/153 35/37/159
f 35/37/159 31/33/153 27/29/160
s off
f 40/44/161 42/45/162 41/46/163
s 47
f 43/47/164 44/48/165 41/46/166
f 45/49/167 43/47/164 46/50/168
s off
f 47/51/169 41/46/170 46/50/171
f 48/52/172 41/46/173 42/45/174
s 50
f 49/53/175 41/46/176 50/54/177
f 51/55/178 46/50/179 49/53/175
s off
f 52/56/180 46/50/181 41/46/182
s 52
f 51/55/183 45/49/184 46/50/185
s off
f 44/48/186 40/44/187 41/46/188
f 48/52/189 42/45/190 40/44/191
f 41/46/192 48/52/193 50/54/194
f 43/47/195 47/51/196 46/50/197
f 41/46/198 47/51/199 43/47/200
f 49/53/201 52/56/202 41/46/203
f 46/50/204 52/56/205 49/53/206
s 50
f 50/54/177 25/57/207 49/53/175
s 47
f 43/47/164 26/58/208 44/48/165
s 60
f 44/48/209 26/58/210 50/54/211
f 50/54/211 26/58/210 25/57/212
s 50
f 49/53/175 25/57/207 51/55/178
s 52
f 51/55/183 25/57/213 45/49/184
f 45/49/184 25/57/213 26/58/214
s 47
f 45/49/167 26/58/208 43/47/164
s 60
f 50/54/211 48/52/215 44/48/209
f 44/48/209 48/52/215 40/44/216
s off
f 61/59/217 62/60/218 57/61/219
s 62
f 60/62/220 59/63/221 57/61/222
s off
f 64/64/223 57/61/224 56/65/225
f 63/66/226 57/61/227 62/60/228
s 65
f 55/67/229 57/61/230 58/68/231
s off
f 65/69/232 56/65/233 57/61/234
f 55/67/235 60/62/236 56/65/237
f 59/63/238 61/59/239 57/61/240
s 69
f 58/68/241 63/66/242 59/63/243
f 59/63/243 63/66/242 61/59/244
s off
f 57/61/245 63/66/246 58/68/247
f 60/62/248 64/64/249 56/65/250
f 57/61/251 64/64/252 60/62/253
f 55/67/254 65/69/255 57/61/256
f 56/65/257 65/69/258 55/67/259
s 75
f 59/71/260 54/72/261 58/70/262
f 58/70/262 54/72/261 53/73/263
s 62
f 59/74/221 60/75/220 54/76/264
s 65
f 55/77/229 58/78/231 53/79/265
s 76
f 60/62/266 54/80/267 55/67/268
f 55/67/268 54/80/267 53/81/269
s off
f 61/59/270 63/66/271 62/60/272
f 66/82/273 68/83/274 67/84/275
s 79
f 69/85/276 68/83/277 70/86/278
s off
f 72/87/279 71/88/280 68/83/281
f 73/89/282 67/84/283 68/83/284
s 82
f 74/90/285 75/91/286 68/83/287
s off
f 76/92/288 68/83/289 71/88/290
f 74/90/291 71/88/292 69/85/293
f 70/86/294 68/83/295 66/82/296
s 86
f 75/91/297 70/86/298 73/89/299
f 73/89/299 70/86/298 66/82/300
s off
f 68/83/301 75/91/302 73/89/303
f 69/85/304 71/88/305 72/87/306
f 68/83/307 69/85/308 72/87/309
f 74/90/310 68/83/311 76/92/312
f 71/88/313 74/90/314 76/92/315
s 92
f 53/94/316 54/95/317 75/93/318
f 75/93/318 54/95/317 70/96/319
s 79
f 70/97/278 54/98/320 69/99/276
s 82
f 74/100/285 53/101/321 75/102/286
s 93
f 53/103/322 54/104/323 74/90/324
f 74/90/324 54/104/323 69/85/325
s off
f 66/82/326 67/84/327 73/89/328
